<svg xmlns="http://www.w3.org/2000/svg" width="33" height="33" viewBox="0 0 33 33" fill="none">
  <g clip-path="url(#clip0_1_2440)">
    <path d="M30.9284 24.75C30.9284 25.297 30.7111 25.8216 30.3244 26.2084C29.9376 26.5952 29.413 26.8125 28.866 26.8125H4.11744C3.57046 26.8125 3.04589 26.5952 2.65912 26.2084C2.27234 25.8216 2.05506 25.297 2.05506 24.75V12.375C2.05506 11.828 2.27234 11.3034 2.65912 10.9166C3.04589 10.5298 3.57046 10.3125 4.11744 10.3125H6.53455C8.17464 10.3116 9.74727 9.65952 10.9068 8.49956L12.6186 6.79181C13.0043 6.406 13.5271 6.18871 14.0726 6.1875H18.9068C19.4537 6.18762 19.9782 6.40499 20.3649 6.79181L22.0725 8.49956C22.6472 9.07441 23.3295 9.5304 24.0804 9.84147C24.8313 10.1525 25.6361 10.3126 26.4489 10.3125H28.866C29.413 10.3125 29.9376 10.5298 30.3244 10.9166C30.7111 11.3034 30.9284 11.828 30.9284 12.375V24.75ZM4.11744 8.25C3.02349 8.25 1.97434 8.6846 1.20079 9.45818C0.427248 10.2318 -0.00732422 11.281 -0.00732422 12.375L-0.00732422 24.75C-0.00732422 25.844 0.427248 26.8932 1.20079 27.6668C1.97434 28.4404 3.02349 28.875 4.11744 28.875H28.866C29.96 28.875 31.0091 28.4404 31.7827 27.6668C32.5562 26.8932 32.9908 25.844 32.9908 24.75V12.375C32.9908 11.281 32.5562 10.2318 31.7827 9.45818C31.0091 8.6846 29.96 8.25 28.866 8.25H26.4489C25.3551 8.24977 24.3061 7.81502 23.5327 7.04138L21.8251 5.33362C21.0517 4.55998 20.0027 4.12523 18.9089 4.125H14.0746C12.9808 4.12523 11.9318 4.55998 11.1584 5.33362L9.45076 7.04138C8.6774 7.81502 7.62842 8.24977 6.53455 8.25H4.11744Z" fill="#464E5F"/>
    <path d="M16.492 22.6875C15.1245 22.6875 13.8131 22.1443 12.8462 21.1773C11.8792 20.2103 11.336 18.8988 11.336 17.5312C11.336 16.1637 11.8792 14.8522 12.8462 13.8852C13.8131 12.9182 15.1245 12.375 16.492 12.375C17.8594 12.375 19.1709 12.9182 20.1378 13.8852C21.1047 14.8522 21.6479 16.1637 21.6479 17.5312C21.6479 18.8988 21.1047 20.2103 20.1378 21.1773C19.1709 22.1443 17.8594 22.6875 16.492 22.6875ZM16.492 24.75C18.4064 24.75 20.2424 23.9895 21.5961 22.6357C22.9498 21.2819 23.7103 19.4458 23.7103 17.5312C23.7103 15.6167 22.9498 13.7806 21.5961 12.4268C20.2424 11.073 18.4064 10.3125 16.492 10.3125C14.5776 10.3125 12.7415 11.073 11.3878 12.4268C10.0341 13.7806 9.27363 15.6167 9.27363 17.5312C9.27363 19.4458 10.0341 21.2819 11.3878 22.6357C12.7415 23.9895 14.5776 24.75 16.492 24.75ZM6.18006 13.4062C6.18006 13.6798 6.07142 13.9421 5.87803 14.1355C5.68464 14.3289 5.42236 14.4375 5.14887 14.4375C4.87538 14.4375 4.61309 14.3289 4.4197 14.1355C4.22632 13.9421 4.11768 13.6798 4.11768 13.4062C4.11768 13.1327 4.22632 12.8704 4.4197 12.677C4.61309 12.4836 4.87538 12.375 5.14887 12.375C5.42236 12.375 5.68464 12.4836 5.87803 12.677C6.07142 12.8704 6.18006 13.1327 6.18006 13.4062Z" fill="#464E5F"/>
  </g>
  <defs>
    <clipPath id="clip0_1_2440">
      <rect width="32.9981" height="33" fill="white" transform="translate(-0.00732422)"/>
    </clipPath>
  </defs>
</svg>